# xmcd
#
# Track frame offsets: 
#        150
#        21017
#        36725
#        53912
#        75927
#        100432
#        120207
#        140607
#        152645
#        173675
#        201800
#        226930
#
# Disc length: 3265 seconds
#
# Revision: 0
# Processed by: cddbd v1.5.2PL0 Copyright (c) Steve Scherf et al.
# Submitted via: ExactAudioCopy v1.0b3
#
DISCID=920cbf0c
DTITLE=Hans Blues und Boogie - Time is on my Side
DYEAR=1993
DGENRE=Blues
TTITLE0=Addicted to the Blues
TTITLE1=Take it Easy
TTITLE2=Time is on my Side
TTITLE3=Watch Out
TTITLE4=There's no Other World for me
TTITLE5=Double Talk Blues
TTITLE6=Trau keinem unter 30
TTITLE7=Hei, Mama
TTITLE8=When She's Gone
TTITLE9=Deutschland Blues
TTITLE10=Coming Home
TTITLE11=Goin' Down the Road
EXTD=
EXTT0=
EXTT1=
EXTT2=
EXTT3=
EXTT4=
EXTT5=
EXTT6=
EXTT7=
EXTT8=
EXTT9=
EXTT10=
EXTT11=
PLAYORDER=
